<svg width="112" height="26" viewBox="0 0 112 26" fill="none" xmlns="http://www.w3.org/2000/svg">
<g id="GERUA">
<path d="M20.3342 7.675C19.6575 6.25167 18.6775 5.155 17.3942 4.385C16.1108 3.59167 14.6175 3.195 12.9142 3.195C11.2108 3.195 9.67085 3.59167 8.29418 4.385C6.94085 5.155 5.86751 6.275 5.07418 7.745C4.30418 9.19167 3.91918 10.8717 3.91918 12.785C3.91918 14.6983 4.30418 16.3783 5.07418 17.825C5.86751 19.2717 6.94085 20.3917 8.29418 21.185C9.67085 21.955 11.2108 22.34 12.9142 22.34C15.2942 22.34 17.2542 21.6283 18.7942 20.205C20.3342 18.7817 21.2325 16.8567 21.4892 14.43H11.7592V11.84H24.8842V14.29C24.6975 16.2967 24.0675 18.14 22.9942 19.82C21.9208 21.4767 20.5092 22.795 18.7592 23.775C17.0092 24.7317 15.0608 25.21 12.9142 25.21C10.6508 25.21 8.58585 24.685 6.71918 23.635C4.85251 22.5617 3.37085 21.08 2.27418 19.19C1.20085 17.3 0.66418 15.165 0.66418 12.785C0.66418 10.405 1.20085 8.27 2.27418 6.38C3.37085 4.46667 4.85251 2.985 6.71918 1.935C8.58585 0.861665 10.6508 0.324998 12.9142 0.324998C15.5042 0.324998 17.7908 0.966665 19.7742 2.25C21.7808 3.53333 23.2392 5.34167 24.1492 7.675H20.3342Z" fill="#008AFF"/>
<path d="M32.2804 3.195V11.35H41.1704V13.975H32.2804V22.375H42.2204V25H29.0954V0.57H42.2204V3.195H32.2804ZM59.8847 25L54.0747 15.025H50.2247V25H47.0397V0.604999H54.9147C56.7581 0.604999 58.3097 0.919999 59.5697 1.55C60.8531 2.18 61.8097 3.03167 62.4397 4.105C63.0697 5.17833 63.3847 6.40333 63.3847 7.78C63.3847 9.46 62.8947 10.9417 61.9147 12.225C60.9581 13.5083 59.5114 14.36 57.5747 14.78L63.6997 25H59.8847ZM50.2247 12.47H54.9147C56.6414 12.47 57.9364 12.05 58.7997 11.21C59.6631 10.3467 60.0947 9.20333 60.0947 7.78C60.0947 6.33333 59.6631 5.21333 58.7997 4.42C57.9597 3.62667 56.6647 3.23 54.9147 3.23H50.2247V12.47ZM71.4487 0.604999V16.04C71.4487 18.21 71.9737 19.82 73.0237 20.87C74.097 21.92 75.5787 22.445 77.4687 22.445C79.3353 22.445 80.7937 21.92 81.8437 20.87C82.917 19.82 83.4537 18.21 83.4537 16.04V0.604999H86.6387V16.005C86.6387 18.035 86.2303 19.75 85.4137 21.15C84.597 22.5267 83.4887 23.5533 82.0887 24.23C80.712 24.9067 79.1603 25.245 77.4337 25.245C75.707 25.245 74.1437 24.9067 72.7437 24.23C71.367 23.5533 70.2703 22.5267 69.4537 21.15C68.6603 19.75 68.2637 18.035 68.2637 16.005V0.604999H71.4487ZM106.372 19.575H95.7318L93.7718 25H90.4118L99.2318 0.744999H102.907L111.692 25H108.332L106.372 19.575ZM105.462 16.985L101.052 4.665L96.6418 16.985H105.462Z" fill="black"/>
</g>
</svg>
